<svg xmlns="http://www.w3.org/2000/svg" xmlns:xlink="http://www.w3.org/1999/xlink" width="500" zoomAndPan="magnify" viewBox="0 0 375 225" height="300" preserveAspectRatio="xMidYMid meet" version="1.0"><defs><g/><clipPath id="8974174fad"><path d="M 3 23 L 176 23 L 176 182 L 3 182 Z M 3 23 " clip-rule="nonzero"/></clipPath><clipPath id="786363e40f"><path d="M 0 18.457031 L 173.804688 10.238281 L 182.027344 184.042969 L 8.21875 192.261719 Z M 0 18.457031 " clip-rule="nonzero"/></clipPath><clipPath id="6d14e6b10e"><path d="M 0 18.457031 L 173.804688 10.238281 L 182.027344 184.042969 L 8.21875 192.261719 Z M 0 18.457031 " clip-rule="nonzero"/></clipPath><clipPath id="eef95b4516"><path d="M 0 18.457031 L 173.804688 10.238281 L 182.027344 184.042969 L 8.21875 192.261719 Z M 0 18.457031 " clip-rule="nonzero"/></clipPath><clipPath id="3fcad18792"><path d="M 88 88 L 95 88 L 95 95 L 88 95 Z M 88 88 " clip-rule="nonzero"/></clipPath><clipPath id="2fa3fb30af"><path d="M 0 18.457031 L 173.804688 10.238281 L 182.027344 184.042969 L 8.21875 192.261719 Z M 0 18.457031 " clip-rule="nonzero"/></clipPath><clipPath id="9d21f8109e"><path d="M 0 18.457031 L 173.804688 10.238281 L 182.027344 184.042969 L 8.21875 192.261719 Z M 0 18.457031 " clip-rule="nonzero"/></clipPath><clipPath id="01a649a771"><path d="M 0 18.457031 L 173.804688 10.238281 L 182.027344 184.042969 L 8.21875 192.261719 Z M 0 18.457031 " clip-rule="nonzero"/></clipPath><clipPath id="9a84903d43"><path d="M 97 97 L 104 97 L 104 103 L 97 103 Z M 97 97 " clip-rule="nonzero"/></clipPath><clipPath id="b6edd9e8b8"><path d="M 0 18.457031 L 173.804688 10.238281 L 182.027344 184.042969 L 8.21875 192.261719 Z M 0 18.457031 " clip-rule="nonzero"/></clipPath><clipPath id="f7a1c0c4d5"><path d="M 0 18.457031 L 173.804688 10.238281 L 182.027344 184.042969 L 8.21875 192.261719 Z M 0 18.457031 " clip-rule="nonzero"/></clipPath><clipPath id="34d0423270"><path d="M 0 18.457031 L 173.804688 10.238281 L 182.027344 184.042969 L 8.21875 192.261719 Z M 0 18.457031 " clip-rule="nonzero"/></clipPath><clipPath id="4e30b82a23"><path d="M 32 141 L 176 141 L 176 182 L 32 182 Z M 32 141 " clip-rule="nonzero"/></clipPath><clipPath id="3a46470703"><path d="M 0 18.457031 L 173.804688 10.238281 L 182.027344 184.042969 L 8.21875 192.261719 Z M 0 18.457031 " clip-rule="nonzero"/></clipPath><clipPath id="7885dee0b8"><path d="M 0 18.457031 L 173.804688 10.238281 L 182.027344 184.042969 L 8.21875 192.261719 Z M 0 18.457031 " clip-rule="nonzero"/></clipPath><clipPath id="731d123320"><path d="M 0 18.457031 L 173.804688 10.238281 L 182.027344 184.042969 L 8.21875 192.261719 Z M 0 18.457031 " clip-rule="nonzero"/></clipPath><clipPath id="0893d28f57"><path d="M 3 23 L 48 23 L 48 166 L 3 166 Z M 3 23 " clip-rule="nonzero"/></clipPath><clipPath id="f48a9da8cb"><path d="M 0 18.457031 L 173.804688 10.238281 L 182.027344 184.042969 L 8.21875 192.261719 Z M 0 18.457031 " clip-rule="nonzero"/></clipPath><clipPath id="ca99f05645"><path d="M 0 18.457031 L 173.804688 10.238281 L 182.027344 184.042969 L 8.21875 192.261719 Z M 0 18.457031 " clip-rule="nonzero"/></clipPath><clipPath id="91164c8e5a"><path d="M 0 18.457031 L 173.804688 10.238281 L 182.027344 184.042969 L 8.21875 192.261719 Z M 0 18.457031 " clip-rule="nonzero"/></clipPath><clipPath id="b34c601812"><path d="M 0 20 L 179 20 L 179 185 L 0 185 Z M 0 20 " clip-rule="nonzero"/></clipPath><clipPath id="e951ba85c3"><path d="M 0 18.457031 L 173.804688 10.238281 L 182.027344 184.042969 L 8.21875 192.261719 Z M 0 18.457031 " clip-rule="nonzero"/></clipPath><clipPath id="b8c91d4865"><path d="M 0 18.457031 L 173.804688 10.238281 L 182.027344 184.042969 L 8.21875 192.261719 Z M 0 18.457031 " clip-rule="nonzero"/></clipPath><clipPath id="0c27005217"><path d="M 0 18.457031 L 173.804688 10.238281 L 182.027344 184.042969 L 8.21875 192.261719 Z M 0 18.457031 " clip-rule="nonzero"/></clipPath></defs><g clip-path="url(#8974174fad)"><g clip-path="url(#786363e40f)"><g clip-path="url(#6d14e6b10e)"><g clip-path="url(#eef95b4516)"><path fill="#505256" d="M 32.585938 165.628906 L 49.164062 157.78125 C 68.246094 148.761719 90.902344 152.128906 106.53125 166.34375 L 108.554688 168.183594 C 121.445312 153.976562 143.429688 152.9375 157.636719 165.863281 L 174.746094 181.4375 L 174.902344 179.980469 C 177.609375 155.554688 172.039062 130.957031 159.105469 110.054688 L 156.855469 106.449219 L 152.96875 110.753906 C 140.042969 124.929688 118.09375 125.96875 103.886719 113.074219 L 119.480469 95.933594 L 114.085938 95.113281 C 104.847656 93.703125 97.371094 86.902344 95.097656 77.839844 L 93.773438 72.546875 L 78.175781 89.6875 C 64.003906 76.761719 62.964844 54.8125 75.855469 40.605469 L 79.773438 36.332031 L 75.972656 34.429688 C 53.945312 23.527344 28.929688 20.304688 4.867188 25.304688 L 3.433594 25.597656 L 20.550781 41.160156 C 34.761719 54.085938 35.800781 76.070312 22.875 90.242188 L 24.898438 92.082031 C 40.523438 106.300781 46.015625 128.539062 38.835938 148.386719 L 32.585938 165.628906 " fill-opacity="1" fill-rule="nonzero"/></g></g></g></g><g clip-path="url(#3fcad18792)"><g clip-path="url(#2fa3fb30af)"><g clip-path="url(#9d21f8109e)"><g clip-path="url(#01a649a771)"><path fill="#3b393d" d="M 94.464844 91.523438 C 94.542969 93.113281 93.304688 94.476562 91.710938 94.550781 C 90.117188 94.625 88.757812 93.386719 88.683594 91.796875 C 88.605469 90.203125 89.84375 88.84375 91.4375 88.765625 C 93.03125 88.691406 94.390625 89.929688 94.464844 91.523438 " fill-opacity="1" fill-rule="nonzero"/></g></g></g></g><g clip-path="url(#9a84903d43)"><g clip-path="url(#b6edd9e8b8)"><g clip-path="url(#f7a1c0c4d5)"><g clip-path="url(#34d0423270)"><path fill="#3b393d" d="M 103.550781 99.789062 C 103.628906 101.378906 102.390625 102.742188 100.796875 102.816406 C 99.203125 102.890625 97.84375 101.652344 97.769531 100.0625 C 97.691406 98.46875 98.929688 97.109375 100.523438 97.03125 C 102.117188 96.957031 103.476562 98.195312 103.550781 99.789062 " fill-opacity="1" fill-rule="nonzero"/></g></g></g></g><g clip-path="url(#4e30b82a23)"><g clip-path="url(#3a46470703)"><g clip-path="url(#7885dee0b8)"><g clip-path="url(#731d123320)"><path fill="#3b393d" d="M 174.355469 168.414062 L 174.199219 169.871094 L 157.089844 154.296875 C 142.882812 141.371094 120.898438 142.410156 108.003906 156.617188 L 105.984375 154.777344 C 90.355469 140.558594 67.699219 137.191406 48.617188 146.214844 L 37.765625 151.355469 L 32.585938 165.628906 L 49.164062 157.78125 C 68.246094 148.761719 90.902344 152.128906 106.53125 166.34375 L 108.554688 168.183594 C 121.445312 153.976562 143.429688 152.9375 157.636719 165.863281 L 174.746094 181.4375 L 174.902344 179.980469 C 175.757812 172.21875 175.777344 164.449219 174.996094 156.789062 C 174.984375 160.648438 174.78125 164.53125 174.355469 168.414062 " fill-opacity="1" fill-rule="nonzero"/></g></g></g></g><g clip-path="url(#0893d28f57)"><g clip-path="url(#f48a9da8cb)"><g clip-path="url(#ca99f05645)"><g clip-path="url(#91164c8e5a)"><path fill="#66686d" d="M 32.585938 165.628906 L 39.441406 162.382812 L 44.621094 148.113281 C 51.800781 128.265625 46.308594 106.027344 30.679688 91.808594 L 28.65625 89.96875 C 41.585938 75.792969 40.546875 53.8125 26.335938 40.886719 L 9.21875 25.324219 L 10.652344 25.03125 C 15.28125 24.0625 19.9375 23.414062 24.609375 23.054688 C 18.015625 23.210938 11.40625 23.941406 4.867188 25.304688 L 3.433594 25.597656 L 20.550781 41.160156 C 34.761719 54.085938 35.800781 76.070312 22.875 90.242188 L 24.898438 92.082031 C 40.523438 106.300781 46.015625 128.539062 38.835938 148.386719 L 32.585938 165.628906 " fill-opacity="1" fill-rule="nonzero"/></g></g></g></g><g clip-path="url(#b34c601812)"><g clip-path="url(#e951ba85c3)"><g clip-path="url(#b8c91d4865)"><g clip-path="url(#0c27005217)"><path fill="#211d1d" d="M 132.460938 153.964844 C 142.515625 153.492188 152.132812 156.953125 159.574219 163.722656 L 172.410156 175.398438 C 173.960938 153.125 168.425781 130.628906 156.644531 111.578125 L 156.433594 111.234375 L 155.109375 112.691406 C 141.140625 128.023438 117.292969 129.152344 101.949219 115.214844 C 101.382812 114.699219 101.03125 113.980469 100.992188 113.210938 C 100.957031 112.445312 101.226562 111.695312 101.746094 111.128906 L 113.703125 97.984375 L 113.644531 97.972656 C 103.234375 96.394531 94.84375 88.765625 92.289062 78.546875 L 92.277344 78.492188 L 80.320312 91.636719 C 79.800781 92.203125 79.082031 92.542969 78.3125 92.582031 C 77.546875 92.617188 76.796875 92.335938 76.230469 91.820312 C 60.90625 77.859375 59.777344 54.011719 73.714844 38.65625 L 75.050781 37.199219 L 74.667969 37.015625 C 54.609375 27.09375 31.683594 23.71875 9.664062 27.351562 L 22.5 39.03125 C 29.941406 45.800781 34.308594 55.070312 34.773438 65.113281 C 35.203125 74.183594 32.410156 82.910156 26.878906 89.976562 C 43.410156 105.03125 49.164062 128.34375 41.566406 149.367188 L 37.699219 160.011719 L 47.929688 155.167969 C 68.140625 145.605469 91.890625 149.136719 108.441406 164.171875 C 114.953125 157.996094 123.378906 154.394531 132.449219 153.964844 C 132.449219 153.964844 132.460938 153.964844 132.460938 153.964844 Z M 174.882812 184.328125 C 174.125 184.363281 173.375 184.09375 172.796875 183.578125 L 155.675781 168.003906 C 149.382812 162.28125 141.242188 159.347656 132.734375 159.75 C 132.734375 159.75 132.722656 159.75 132.722656 159.75 C 124.226562 160.152344 116.410156 163.839844 110.695312 170.132812 C 110.175781 170.699219 109.457031 171.039062 108.691406 171.078125 C 107.921875 171.113281 107.171875 170.84375 106.605469 170.324219 L 104.570312 168.484375 C 89.769531 155.011719 68.503906 151.839844 50.410156 160.394531 L 33.820312 168.253906 C 32.769531 168.757812 31.503906 168.566406 30.636719 167.769531 C 29.761719 166.984375 29.457031 165.753906 29.855469 164.648438 L 36.117188 147.394531 C 42.925781 128.570312 37.761719 107.699219 22.949219 94.226562 L 20.925781 92.386719 C 20.359375 91.867188 20.019531 91.148438 19.980469 90.378906 C 19.945312 89.613281 20.214844 88.863281 20.730469 88.296875 C 26.457031 82.011719 29.390625 73.878906 28.988281 65.386719 C 28.597656 56.878906 24.910156 49.039062 18.605469 43.3125 L 1.484375 27.738281 C 0.691406 27.007812 0.355469 25.890625 0.644531 24.835938 C 0.9375 23.789062 1.78125 22.992188 2.847656 22.761719 L 4.28125 22.464844 C 28.835938 17.367188 54.75 20.691406 77.253906 31.832031 L 81.066406 33.746094 C 81.878906 34.148438 82.449219 34.914062 82.613281 35.8125 C 82.78125 36.699219 82.519531 37.617188 81.90625 38.292969 L 77.988281 42.5625 C 66.859375 54.820312 67.097656 73.5 78.070312 85.492188 L 91.628906 70.597656 C 92.351562 69.804688 93.433594 69.46875 94.476562 69.738281 C 95.507812 69.996094 96.316406 70.804688 96.582031 71.835938 L 97.90625 77.140625 C 99.902344 85.082031 106.421875 91.011719 114.515625 92.25 L 119.921875 93.070312 C 120.972656 93.234375 121.855469 93.964844 122.207031 94.964844 C 122.574219 95.96875 122.34375 97.085938 121.621094 97.878906 L 108.074219 112.785156 C 121.046875 122.589844 139.667969 121.039062 150.828125 108.804688 L 154.703125 104.511719 C 155.316406 103.839844 156.191406 103.492188 157.101562 103.574219 C 158.011719 103.652344 158.828125 104.148438 159.304688 104.917969 L 161.558594 108.523438 C 174.785156 129.886719 180.542969 155.371094 177.78125 180.296875 L 177.625 181.753906 C 177.496094 182.835938 176.777344 183.753906 175.765625 184.140625 C 175.476562 184.246094 175.175781 184.316406 174.882812 184.328125 " fill-opacity="1" fill-rule="nonzero"/></g></g></g></g><g fill="#ffffff" fill-opacity="1"><g transform="translate(125.916571, 78.859281)"><g><path d="M 22.160156 -23.714844 C 19.777344 -23.714844 17.582031 -24.082031 15.65625 -24.996094 C 13.644531 -25.730469 11.902344 -26.917969 10.4375 -28.386719 C 8.972656 -29.851562 7.78125 -31.589844 7.050781 -33.605469 C 6.136719 -35.527344 5.769531 -37.722656 5.769531 -40.105469 L 5.769531 -53.65625 C 5.769531 -56.039062 6.136719 -58.234375 7.050781 -60.25 C 7.78125 -62.171875 8.972656 -63.910156 10.4375 -65.375 C 11.902344 -66.839844 13.644531 -67.941406 15.65625 -68.855469 C 17.582031 -69.589844 19.777344 -70.046875 22.160156 -70.046875 L 32.414062 -70.046875 C 34.792969 -70.046875 36.992188 -69.589844 39.007812 -68.855469 C 40.929688 -67.941406 42.667969 -66.839844 44.132812 -65.375 C 45.597656 -63.910156 46.699219 -62.171875 47.613281 -60.25 C 48.347656 -58.234375 48.804688 -56.039062 48.804688 -53.65625 L 48.804688 -40.105469 C 48.804688 -37.722656 48.347656 -35.527344 47.613281 -33.605469 C 46.699219 -31.589844 45.597656 -29.851562 44.132812 -28.386719 C 42.667969 -26.917969 40.929688 -25.730469 39.007812 -24.996094 C 36.992188 -24.082031 34.792969 -23.714844 32.414062 -23.714844 Z M 9.066406 14.191406 L 9.066406 -16.847656 L 23.804688 -16.847656 L 23.804688 0.824219 L 75.816406 0.824219 L 75.816406 14.191406 Z M 59.425781 -54.296875 L 59.425781 -71.238281 L 74.167969 -71.238281 L 74.167969 -6.59375 L 59.425781 -6.59375 L 59.425781 -40.929688 L 51.183594 -40.929688 L 51.183594 -54.296875 Z M 34.0625 -52.558594 C 34.0625 -53.746094 33.695312 -54.753906 32.964844 -55.578125 C 32.140625 -56.3125 31.132812 -56.679688 29.941406 -56.679688 L 24.628906 -56.679688 C 23.347656 -56.679688 22.433594 -56.3125 21.699219 -55.578125 C 20.875 -54.753906 20.511719 -53.746094 20.511719 -52.558594 L 20.511719 -41.203125 C 20.511719 -39.921875 20.875 -39.007812 21.699219 -38.273438 C 22.433594 -37.449219 23.347656 -37.082031 24.628906 -37.082031 L 29.941406 -37.082031 C 31.132812 -37.082031 32.140625 -37.449219 32.964844 -38.273438 C 33.695312 -39.007812 34.0625 -39.921875 34.0625 -41.203125 Z M 34.0625 -52.558594 "/></g></g></g><g fill="#ffffff" fill-opacity="1"><g transform="translate(207.401695, 78.859281)"><g><path d="M 22.707031 15.109375 C 20.511719 15.109375 18.585938 14.742188 16.847656 14.007812 C 15.015625 13.277344 13.550781 12.269531 12.269531 10.988281 C 10.988281 9.707031 9.980469 8.148438 9.246094 6.410156 C 8.515625 4.578125 8.148438 2.65625 8.148438 0.550781 L 8.148438 -4.121094 C 8.148438 -6.136719 8.515625 -8.148438 9.246094 -9.980469 C 9.980469 -11.71875 10.988281 -13.277344 12.269531 -14.558594 C 13.550781 -15.839844 15.015625 -16.847656 16.847656 -17.582031 C 18.585938 -18.3125 20.511719 -18.679688 22.707031 -18.679688 L 60.523438 -18.679688 C 62.539062 -18.679688 64.550781 -18.3125 66.382812 -17.582031 C 68.125 -16.847656 69.679688 -15.839844 70.960938 -14.558594 C 72.242188 -13.277344 73.25 -11.71875 73.984375 -9.980469 C 74.714844 -8.148438 75.082031 -6.136719 75.082031 -4.121094 L 75.082031 0.550781 C 75.082031 2.65625 74.714844 4.578125 73.984375 6.410156 C 73.25 8.148438 72.242188 9.707031 70.960938 10.988281 C 69.679688 12.269531 68.125 13.277344 66.382812 14.007812 C 64.550781 14.742188 62.539062 15.109375 60.523438 15.109375 Z M 27.742188 -52.28125 L 16.207031 -24.449219 L 1.375 -24.449219 L 20.695312 -69.953125 L 35.070312 -69.953125 L 53.472656 -24.449219 L 38.730469 -24.449219 Z M 59.425781 -54.296875 L 59.425781 -71.238281 L 74.167969 -71.238281 L 74.167969 -21.699219 L 59.425781 -21.699219 L 59.425781 -40.929688 L 48.894531 -40.929688 L 48.894531 -54.296875 Z M 60.339844 -3.203125 C 60.339844 -3.84375 60.066406 -4.394531 59.699219 -4.851562 C 59.242188 -5.21875 58.691406 -5.492188 58.050781 -5.492188 L 25.179688 -5.492188 C 24.449219 -5.492188 23.898438 -5.21875 23.53125 -4.851562 C 23.074219 -4.394531 22.890625 -3.84375 22.890625 -3.203125 L 22.890625 -0.367188 C 22.890625 0.273438 23.074219 0.824219 23.53125 1.28125 C 23.898438 1.648438 24.449219 1.921875 25.179688 1.921875 L 58.050781 1.921875 C 58.691406 1.921875 59.242188 1.648438 59.699219 1.28125 C 60.066406 0.824219 60.339844 0.273438 60.339844 -0.367188 Z M 60.339844 -3.203125 "/></g></g></g><g fill="#ffffff" fill-opacity="1"><g transform="translate(125.916571, 178.252349)"><g><path d="M 74.167969 15.109375 L 59.425781 15.109375 L 59.425781 -71.238281 L 74.167969 -71.238281 Z M 22.25 13.460938 C 19.871094 13.460938 17.671875 13.003906 15.75 12.269531 C 13.734375 11.355469 11.996094 10.253906 10.53125 8.789062 C 9.066406 7.324219 7.875 5.585938 7.140625 3.664062 C 6.226562 1.648438 5.859375 -0.550781 5.859375 -2.929688 L 5.859375 -23.988281 C 5.859375 -26.371094 6.226562 -28.566406 7.140625 -30.582031 C 7.875 -32.503906 9.066406 -34.246094 10.53125 -35.710938 C 11.996094 -37.175781 13.734375 -38.273438 15.75 -39.1875 C 17.671875 -39.921875 19.871094 -40.378906 22.25 -40.378906 L 30.675781 -40.378906 C 33.054688 -40.378906 35.253906 -39.921875 37.265625 -39.1875 C 39.1875 -38.273438 40.929688 -37.175781 42.394531 -35.710938 C 43.859375 -34.246094 44.957031 -32.503906 45.875 -30.582031 C 46.605469 -28.566406 47.0625 -26.371094 47.0625 -23.988281 L 47.0625 -2.929688 C 47.0625 -0.550781 46.605469 1.648438 45.875 3.664062 C 44.957031 5.585938 43.859375 7.324219 42.394531 8.789062 C 40.929688 10.253906 39.1875 11.355469 37.265625 12.269531 C 35.253906 13.003906 33.054688 13.460938 30.675781 13.460938 Z M 32.320312 -22.890625 C 32.320312 -24.082031 31.957031 -25.089844 31.222656 -25.914062 C 30.398438 -26.644531 29.390625 -27.011719 28.203125 -27.011719 L 24.722656 -27.011719 C 23.441406 -27.011719 22.523438 -26.644531 21.792969 -25.914062 C 20.96875 -25.089844 20.601562 -24.082031 20.601562 -22.890625 L 20.601562 -4.027344 C 20.601562 -2.746094 20.96875 -1.832031 21.792969 -1.097656 C 22.523438 -0.273438 23.441406 0.0898438 24.722656 0.0898438 L 28.203125 0.0898438 C 29.390625 0.0898438 30.398438 -0.273438 31.222656 -1.097656 C 31.957031 -1.832031 32.320312 -2.746094 32.320312 -4.027344 Z M 42.027344 -71.878906 L 42.027344 -59.332031 L 11.71875 -59.332031 L 11.71875 -71.878906 Z M 52.007812 -56.128906 L 52.007812 -43.585938 L 1.738281 -43.585938 L 1.738281 -56.128906 Z M 52.007812 -56.128906 "/></g></g></g><g fill="#ffffff" fill-opacity="1"><g transform="translate(207.401695, 178.252349)"><g><path d="M 22.160156 13.460938 C 19.777344 13.460938 17.582031 13.003906 15.65625 12.269531 C 13.644531 11.355469 11.902344 10.253906 10.4375 8.789062 C 8.972656 7.324219 7.78125 5.585938 7.050781 3.664062 C 6.136719 1.648438 5.769531 -0.550781 5.769531 -2.929688 L 5.769531 -53.65625 C 5.769531 -56.039062 6.136719 -58.234375 7.050781 -60.25 C 7.78125 -62.171875 8.972656 -63.910156 10.4375 -65.375 C 11.902344 -66.839844 13.644531 -67.941406 15.65625 -68.855469 C 17.582031 -69.589844 19.777344 -70.046875 22.160156 -70.046875 L 32.414062 -70.046875 C 34.792969 -70.046875 36.992188 -69.589844 39.007812 -68.855469 C 40.929688 -67.941406 42.667969 -66.839844 44.132812 -65.375 C 45.597656 -63.910156 46.699219 -62.171875 47.613281 -60.25 C 48.347656 -58.234375 48.804688 -56.039062 48.804688 -53.65625 L 48.804688 -2.929688 C 48.804688 -0.550781 48.347656 1.648438 47.613281 3.664062 C 46.699219 5.585938 45.597656 7.324219 44.132812 8.789062 C 42.667969 10.253906 40.929688 11.355469 39.007812 12.269531 C 36.992188 13.003906 34.792969 13.460938 32.414062 13.460938 Z M 59.425781 -39.097656 L 59.425781 -71.238281 L 74.167969 -71.238281 L 74.167969 15.109375 L 59.425781 15.109375 L 59.425781 -25.730469 L 51.183594 -25.730469 L 51.183594 -39.097656 Z M 34.0625 -52.558594 C 34.0625 -53.746094 33.695312 -54.753906 32.964844 -55.578125 C 32.140625 -56.3125 31.132812 -56.679688 29.941406 -56.679688 L 24.628906 -56.679688 C 23.347656 -56.679688 22.433594 -56.3125 21.699219 -55.578125 C 20.875 -54.753906 20.511719 -53.746094 20.511719 -52.558594 L 20.511719 -4.027344 C 20.511719 -2.746094 20.875 -1.832031 21.699219 -1.097656 C 22.433594 -0.273438 23.347656 0.0898438 24.628906 0.0898438 L 29.941406 0.0898438 C 31.132812 0.0898438 32.140625 -0.273438 32.964844 -1.097656 C 33.695312 -1.832031 34.0625 -2.746094 34.0625 -4.027344 Z M 34.0625 -52.558594 "/></g></g></g><g fill="#ffffff" fill-opacity="1"><g transform="translate(288.886819, 178.252349)"><g><path d="M 74.351562 -28.660156 L 74.351562 -15.292969 L 48.070312 -15.292969 L 48.070312 -0.0898438 L 79.019531 -0.0898438 L 79.019531 13.277344 L 2.472656 13.277344 L 2.472656 -0.0898438 L 33.328125 -0.0898438 L 33.328125 -15.292969 L 8.332031 -15.292969 L 8.332031 -49.261719 L 57.960938 -49.261719 L 57.960938 -56.679688 L 8.148438 -56.679688 L 8.148438 -70.046875 L 72.886719 -70.046875 L 72.886719 -35.894531 L 23.074219 -35.894531 L 23.074219 -28.660156 Z M 74.351562 -28.660156 "/></g></g></g></svg>